<?xml version="1.0" standalone="no"?>
<!DOCTYPE svg PUBLIC "-//W3C//DTD SVG 20010904//EN"
 "http://www.w3.org/TR/2001/REC-SVG-20010904/DTD/svg10.dtd">
<svg version="1.0" xmlns="http://www.w3.org/2000/svg"
 width="4485.000000pt" height="4426.000000pt" viewBox="0 0 4485.000000 4426.000000"
 preserveAspectRatio="xMidYMid meet">

<g transform="translate(0.000000,4426.000000) scale(0.100000,-0.100000)"
fill="#000000" stroke="none">
<path d="M21750 43234 c-566 -25 -842 -43 -1250 -80 -4159 -377 -8109 -1969
-11382 -4586 -904 -723 -1788 -1556 -2559 -2413 -3269 -3632 -5189 -8241
-5459 -13110 -41 -744 -41 -1688 0 -2420 23 -410 77 -1036 115 -1335 104 -823
203 -1402 360 -2115 768 -3476 2415 -6726 4779 -9430 424 -485 1176 -1257
1616 -1660 1843 -1685 3866 -2994 6105 -3950 3351 -1431 7026 -1977 10695
-1589 5670 599 10877 3462 14456 7949 1394 1748 2503 3698 3291 5785 777 2059
1229 4227 1342 6450 40 779 35 1689 -15 2470 -329 5204 -2526 10068 -6214
13760 -1943 1946 -4214 3487 -6724 4562 -2193 940 -4500 1498 -6891 1668 -538
38 -675 42 -1430 45 -418 1 -794 1 -835 -1z m-1224 -11907 c2 -1 12 -160 24
-352 11 -193 22 -386 25 -430 7 -101 23 -390 30 -515 10 -173 16 -274 20 -320
2 -25 7 -106 10 -180 3 -74 8 -160 10 -190 3 -30 7 -102 10 -160 3 -58 8 -130
10 -160 2 -30 7 -104 10 -165 6 -124 13 -254 20 -365 3 -41 10 -160 15 -265 6
-104 12 -217 15 -250 2 -33 7 -107 10 -165 15 -282 56 -981 60 -1025 2 -27 98
-1663 213 -3634 l210 -3583 29 -56 c38 -76 99 -115 189 -120 54 -4 72 0 118
22 33 16 63 41 79 64 14 20 1163 2694 2552 5942 1390 3248 2530 5908 2533
5911 8 7 5131 -206 5138 -214 3 -2 -12 -8 -33 -11 -86 -16 -483 -110 -656
-156 -1082 -290 -2014 -697 -2801 -1224 -948 -636 -1685 -1454 -2154 -2393
-541 -1079 -747 -2287 -626 -3658 101 -1147 361 -1932 829 -2500 83 -100 242
-260 345 -346 l54 -46 -1190 -2289 c-655 -1259 -1722 -3309 -2370 -4556
l-1179 -2268 -1172 0 c-1282 0 -1282 0 -1516 59 -526 133 -987 515 -1221 1011
-88 188 -143 380 -166 585 -11 98 -205 3182 -215 3420 -2 66 -7 154 -10 195
-2 41 -7 111 -10 155 -2 44 -7 118 -10 165 -3 47 -8 121 -10 165 -3 44 -8 116
-10 160 -6 86 -11 173 -20 325 -3 52 -8 120 -10 150 -2 30 -7 105 -10 165 -3
61 -8 130 -10 155 -2 25 -7 95 -10 155 -4 61 -10 162 -15 225 -21 310 -299
4765 -305 4895 -4 83 -8 157 -10 165 -1 8 -6 78 -10 155 -3 77 -8 154 -10 170
-2 17 -7 89 -10 160 -4 72 -10 134 -13 139 -3 5 -13 -11 -23 -35 -9 -24 -74
-179 -144 -344 -69 -165 -196 -469 -282 -675 -353 -850 -1896 -4536 -1903
-4545 -4 -5 -28 -62 -55 -125 -26 -63 -71 -171 -100 -240 -29 -69 -205 -487
-390 -930 -185 -443 -406 -969 -490 -1170 -84 -201 -205 -489 -268 -640 -63
-151 -210 -502 -327 -780 -116 -278 -254 -608 -307 -735 -52 -126 -313 -753
-581 -1393 l-486 -1163 -1200 3 -1201 4 -114 22 c-439 87 -833 322 -1111 662
-180 220 -323 521 -379 797 -17 81 -176 1535 -236 2148 -9 94 -29 289 -45 435
-16 146 -41 375 -55 510 -31 299 -34 325 -40 375 -3 22 -9 83 -15 135 -15 150
-60 571 -65 610 -2 19 -7 60 -9 90 -3 30 -15 138 -26 240 -11 102 -31 293 -45
425 -14 132 -32 301 -41 375 -8 74 -17 155 -19 180 -10 101 -56 527 -60 560
-2 19 -7 64 -10 100 -3 36 -10 99 -15 140 -5 41 -19 163 -30 270 -11 107 -36
341 -55 520 -19 179 -46 433 -60 565 -14 132 -32 301 -40 375 -8 74 -33 306
-55 515 -22 209 -43 398 -45 420 -5 39 -13 121 -75 705 -17 157 -33 303 -35
325 -4 33 -26 242 -61 565 -2 25 -9 86 -14 135 -6 50 -22 198 -35 330 -14 132
-34 319 -45 415 -10 96 -31 285 -45 420 -46 436 -76 714 -80 755 -3 22 -16
148 -30 280 -14 132 -37 341 -50 465 -13 124 -34 313 -45 420 -11 107 -22 211
-25 230 -2 19 -14 125 -25 235 -12 110 -46 430 -76 710 -30 281 -59 553 -64
605 -9 82 -40 379 -56 520 -2 25 -7 63 -9 85 -3 22 -9 83 -15 135 -15 150 -60
571 -65 610 -2 19 -7 60 -9 90 -3 30 -15 138 -26 240 -41 380 -70 658 -80 760
-6 58 -13 115 -16 128 l-4 22 2132 -2 2133 -3 26 -355 c15 -195 30 -386 33
-425 10 -125 55 -703 76 -985 11 -151 22 -300 25 -330 3 -30 14 -176 25 -325
11 -148 22 -290 25 -315 2 -25 7 -85 10 -135 3 -49 10 -142 15 -205 5 -63 12
-151 15 -195 3 -44 8 -100 10 -125 3 -25 7 -81 10 -125 3 -44 8 -105 10 -135
3 -30 12 -147 20 -260 8 -113 17 -230 20 -260 7 -84 13 -158 50 -660 20 -256
38 -490 40 -520 3 -30 14 -172 25 -315 40 -532 51 -671 55 -725 3 -30 12 -147
20 -260 9 -113 17 -227 20 -255 2 -27 7 -84 10 -125 12 -170 55 -739 60 -790
2 -30 7 -89 10 -130 3 -41 16 -219 30 -395 14 -176 27 -354 30 -395 8 -108 13
-162 25 -280 13 -135 117 -1507 125 -1663 4 -65 8 -128 10 -140 2 -12 6 -65
10 -117 3 -52 8 -113 10 -135 2 -22 7 -78 10 -125 3 -47 10 -139 15 -205 5
-66 12 -151 15 -190 13 -172 40 -229 134 -277 100 -52 231 -27 295 57 14 18
87 190 162 382 75 191 268 686 429 1098 161 413 386 989 500 1280 114 292 303
775 420 1075 337 863 1198 3065 1420 3635 197 505 861 2204 1090 2790 277 707
481 1231 532 1365 30 80 61 159 68 175 l12 30 2158 -3 c1187 -1 2160 -3 2161
-5z m15064 -387 c714 -54 1293 -151 1859 -310 1860 -524 3133 -1657 3670
-3267 148 -444 236 -906 272 -1428 18 -260 0 -1208 -24 -1231 -10 -10 -3891
-122 -3901 -113 -6 5 -5 92 2 226 32 611 -82 1202 -311 1601 -315 550 -865
864 -1737 991 -387 57 -907 79 -1426 62 -379 -12 -500 -20 -789 -52 -1092
-119 -1942 -458 -2470 -986 -357 -358 -559 -778 -631 -1313 -20 -152 -23 -489
-5 -605 57 -365 203 -646 481 -926 359 -361 907 -648 1640 -859 211 -61 343
-92 862 -206 2400 -524 3738 -889 4928 -1344 344 -131 451 -177 680 -291 428
-214 754 -443 1050 -739 382 -381 678 -878 849 -1425 281 -901 316 -2105 90
-3175 -334 -1583 -1265 -2957 -2679 -3949 -1325 -931 -3059 -1521 -4920 -1676
-369 -30 -514 -36 -1045 -42 -551 -6 -926 3 -1355 32 -2200 151 -3800 744
-4815 1786 -783 803 -1203 1856 -1271 3185 l-6 131 222 499 c193 431 494 1101
656 1456 30 66 55 108 64 108 16 0 3073 -720 3079 -726 2 -2 -4 -83 -13 -181
-34 -378 -30 -583 15 -862 190 -1184 1128 -1899 2709 -2066 483 -50 1119 -50
1655 1 1031 98 1864 360 2515 790 186 123 328 240 490 403 252 253 436 521
563 821 217 512 276 1146 151 1643 -173 694 -763 1178 -1814 1490 -257 76
-505 133 -1025 232 -2424 462 -3839 846 -4915 1332 -898 407 -1553 906 -1973
1506 -406 579 -619 1224 -699 2117 -17 191 -17 876 0 1070 43 484 116 894 232
1305 547 1925 1966 3419 4035 4247 1080 432 2287 677 3690 748 224 11 1180 5
1365 -10z"/>
</g>
</svg>
