<?xml version="1.0" standalone="no"?>
<!DOCTYPE svg PUBLIC "-//W3C//DTD SVG 20010904//EN"
 "http://www.w3.org/TR/2001/REC-SVG-20010904/DTD/svg10.dtd">
<svg version="1.0" xmlns="http://www.w3.org/2000/svg"
 width="4773.000000pt" height="5360.000000pt" viewBox="0 0 4773.000000 5360.000000"
 preserveAspectRatio="xMidYMid meet">

<g transform="translate(0.000000,5360.000000) scale(0.100000,-0.100000)"
fill="#000000" stroke="none">
<path d="M23330 42353 c-2211 -68 -4433 -919 -6162 -2360 -1005 -837 -1688
-1705 -2046 -2598 -183 -458 -266 -863 -265 -1300 0 -218 10 -327 50 -540 23
-121 30 -143 54 -167 31 -32 65 -35 114 -13 63 31 66 54 26 277 -107 605 19
1308 356 1982 309 618 784 1234 1384 1792 1083 1009 2337 1756 3724 2219 1781
595 3623 664 5294 199 575 -161 1172 -390 1871 -719 301 -142 998 -495 1245
-631 1307 -720 2038 -1379 2446 -2207 38 -78 79 -151 90 -162 29 -30 99 -27
133 4 42 40 43 77 1 173 -105 244 -312 568 -529 828 -108 130 -386 409 -531
535 -413 357 -932 701 -1615 1067 -1005 540 -1923 952 -2655 1191 -965 315
-1979 461 -2985 430z"/>
<path d="M34045 38239 c-564 -51 -1071 -221 -1485 -497 -213 -143 -247 -177
-235 -238 10 -54 45 -84 97 -84 38 0 56 10 148 76 378 274 799 440 1308 515
196 29 590 37 812 15 1425 -136 2638 -947 3613 -2413 420 -632 818 -1413 1245
-2443 359 -863 416 -1370 221 -1937 -161 -467 -448 -946 -1203 -2008 -557
-783 -807 -1178 -1030 -1623 -261 -522 -415 -1010 -482 -1527 -21 -162 -24
-583 -5 -730 45 -352 130 -634 287 -951 153 -310 326 -548 588 -810 222 -221
411 -366 661 -507 236 -133 646 -287 763 -287 69 0 117 84 84 150 -14 30 -26
38 -77 53 -189 57 -353 114 -449 157 -308 139 -586 331 -836 580 -447 444
-715 974 -806 1595 -22 148 -29 455 -15 620 39 446 162 887 382 1374 213 468
513 955 1074 1741 605 848 843 1217 1050 1625 312 614 392 1036 299 1580 -51
307 -161 624 -442 1282 -517 1208 -993 2054 -1540 2738 -320 398 -700 775
-1057 1045 -643 488 -1411 798 -2220 896 -154 18 -605 27 -750 13z"/>
<path d="M29085 37609 c-292 -31 -552 -164 -813 -414 -334 -320 -616 -796
-796 -1340 -195 -589 -281 -1197 -346 -2440 -55 -1055 -100 -1513 -194 -1970
-180 -872 -478 -1457 -1036 -2029 -493 -506 -1235 -1061 -1876 -1403 -870
-466 -1717 -641 -2522 -523 -521 76 -1003 279 -1352 569 -119 99 -140 109
-193 91 -30 -11 -47 -25 -61 -51 -37 -68 -12 -102 189 -253 401 -302 876 -490
1450 -572 176 -25 613 -30 815 -9 1023 105 2029 584 3140 1494 346 283 661
599 883 884 512 656 777 1442 891 2642 23 240 43 538 71 1065 40 751 64 1058
110 1405 99 735 280 1303 560 1761 344 561 690 837 1112 884 481 53 1031 -304
1288 -835 84 -175 134 -342 165 -558 59 -399 23 -856 -112 -1426 -51 -214 -52
-235 -10 -273 44 -39 102 -39 141 0 23 23 34 56 75 236 55 243 98 488 122 701
20 180 23 542 5 695 -63 541 -274 974 -625 1281 -322 283 -724 427 -1081 388z"/>
<path d="M14560 37451 c-441 -158 -837 -481 -1220 -996 -192 -258 -344 -498
-650 -1025 -470 -811 -694 -1287 -849 -1800 -54 -178 -98 -378 -171 -775 -123
-669 -191 -911 -351 -1244 -192 -400 -458 -781 -863 -1234 -91 -103 -96 -110
-96 -153 0 -63 40 -104 101 -104 48 0 43 -5 243 225 441 506 713 930 899 1400
107 270 168 508 252 975 92 513 133 692 217 950 160 490 391 962 866 1770 273
464 431 711 601 934 343 455 725 759 1118 891 102 35 128 60 128 122 0 38 -5
49 -33 74 -42 38 -63 36 -192 -10z"/>
<path d="M31669 36651 c-35 -35 -36 -53 -8 -181 26 -124 36 -386 20 -530 -48
-416 -210 -841 -560 -1468 -62 -111 -101 -191 -101 -209 0 -52 56 -103 114
-103 43 0 80 48 184 235 404 730 564 1197 579 1685 8 253 -32 525 -83 577 -36
35 -106 33 -145 -6z"/>
<path d="M31845 34200 c-77 -7 -106 -19 -129 -52 -29 -41 -11 -125 31 -143 10
-5 128 -9 263 -10 254 -1 350 -11 555 -55 551 -120 1083 -423 1515 -867 164
-168 270 -299 405 -503 221 -332 376 -653 510 -1055 368 -1103 388 -2440 56
-3651 -27 -99 -54 -192 -60 -207 -25 -63 -10 -117 39 -142 85 -44 136 -4 180
143 136 450 230 964 271 1492 16 199 16 730 0 930 -51 652 -180 1243 -386
1765 -70 178 -261 561 -358 718 -303 488 -694 891 -1137 1172 -142 90 -457
244 -612 299 -382 137 -805 198 -1143 166z"/>
<path d="M10875 32259 c-56 -30 -143 -123 -187 -199 -21 -35 -77 -163 -125
-284 -201 -508 -415 -863 -693 -1150 -131 -135 -222 -211 -365 -306 -330 -217
-688 -324 -1030 -307 -359 19 -696 136 -1255 436 -404 218 -592 403 -654 646
-20 75 -50 105 -107 105 -31 0 -47 -7 -70 -29 -39 -40 -41 -84 -8 -190 59
-187 202 -362 427 -521 184 -130 621 -363 867 -463 338 -138 693 -210 945
-192 936 64 1698 737 2130 1880 98 260 128 308 258 416 43 36 45 94 5 139 -37
41 -85 47 -138 19z"/>
<path d="M18408 30481 c-36 -32 -39 -57 -20 -163 13 -72 16 -76 67 -99 28 -12
58 -39 91 -81 184 -236 510 -559 678 -672 51 -34 104 -35 139 -2 28 26 43 79
30 113 -4 12 -66 70 -138 130 -125 104 -405 376 -405 393 0 5 33 0 73 -11 816
-227 1028 -278 1347 -321 183 -24 542 -29 680 -9 397 58 712 193 960 411 100
89 141 141 147 189 4 32 1 43 -25 72 -26 29 -37 34 -75 34 -42 0 -49 -4 -144
-96 -160 -153 -336 -258 -552 -329 -400 -130 -857 -120 -1486 35 -141 35
-1076 288 -1145 310 -8 3 -28 26 -45 51 -52 79 -120 96 -177 45z"/>
<path d="M39147 28389 c-32 -19 -48 -69 -64 -212 -23 -204 -23 -705 1 -922
108 -981 466 -1851 1080 -2620 200 -250 643 -679 779 -753 49 -27 88 -24 124
10 25 23 39 75 28 107 -3 12 -59 65 -123 118 -374 311 -663 634 -926 1035
-413 631 -662 1323 -752 2093 -23 197 -26 719 -5 910 20 176 20 183 -18 217
-33 30 -89 37 -124 17z"/>
<path d="M5356 26678 c-67 -67 -200 -329 -280 -551 -111 -306 -177 -633 -207
-1018 -15 -204 -6 -789 15 -999 75 -723 247 -1409 522 -2079 31 -75 120 -266
199 -426 275 -556 529 -933 850 -1264 241 -248 475 -421 755 -560 307 -152
598 -227 920 -236 74 -3 151 -9 170 -15 28 -8 42 -6 75 10 22 11 65 24 94 30
61 11 76 21 98 63 18 35 11 87 -15 109 -42 37 -60 40 -147 27 l-83 -12 -69 49
c-37 26 -117 96 -177 154 -292 284 -472 636 -532 1044 -13 84 -15 155 -12 294
5 183 5 184 -19 212 -29 35 -80 47 -120 28 -50 -23 -64 -72 -70 -232 -20 -535
187 -1067 571 -1463 44 -46 75 -83 70 -83 -5 0 -46 7 -92 15 -412 72 -802 274
-1156 598 -480 439 -976 1278 -1281 2169 -391 1140 -481 2437 -229 3310 65
227 166 465 275 645 66 110 63 160 -11 198 -46 24 -78 19 -114 -17z"/>
<path d="M40024 23890 c-48 -19 -69 -92 -43 -143 18 -34 94 -122 209 -241 631
-652 1525 -1045 2460 -1081 198 -8 436 7 481 30 33 18 62 73 53 102 -28 86
-47 94 -209 81 -227 -18 -562 2 -815 48 -723 131 -1430 520 -1891 1041 -157
176 -153 173 -191 172 -18 0 -43 -4 -54 -9z"/>
<path d="M15185 23261 c-34 -14 -51 -41 -105 -159 -138 -307 -229 -586 -276
-853 -22 -124 -23 -348 -1 -446 39 -179 127 -323 261 -431 22 -17 37 -35 33
-38 -4 -4 -51 -9 -104 -12 -171 -7 -299 38 -418 149 -190 179 -233 454 -108
704 14 28 83 138 154 246 182 277 259 448 259 574 0 39 -5 52 -30 77 -28 27
-36 30 -77 25 -62 -7 -80 -29 -104 -127 -28 -119 -88 -238 -228 -450 -202
-305 -251 -429 -251 -630 0 -207 71 -386 211 -534 98 -103 190 -163 319 -207
89 -31 104 -33 230 -33 110 0 149 4 213 22 95 27 205 80 218 104 5 10 17 18
25 18 60 0 105 71 84 134 -17 52 -41 67 -119 76 -92 10 -153 41 -227 114 -71
72 -117 159 -140 266 -21 96 -13 296 16 429 46 214 142 497 246 728 35 77 64
149 64 158 0 29 -30 74 -60 90 -32 16 -55 18 -85 6z"/>
<path d="M43105 22234 c-357 -220 -754 -352 -1205 -400 -210 -22 -639 -15
-855 15 -435 59 -850 173 -1325 365 -63 25 -122 46 -133 46 -84 0 -130 -115
-69 -173 49 -47 452 -197 787 -293 221 -64 511 -124 745 -156 144 -20 207 -23
505 -22 298 0 358 3 482 22 371 56 680 152 968 301 241 125 315 181 315 242 0
28 -26 75 -52 93 -37 26 -69 18 -163 -40z"/>
<path d="M13158 22117 c-111 -85 -247 -300 -306 -487 -47 -149 -57 -226 -56
-425 1 -154 5 -198 27 -306 65 -307 212 -610 432 -884 75 -94 297 -336 366
-399 242 -221 516 -481 749 -711 151 -149 316 -301 365 -338 100 -76 278 -168
370 -193 93 -25 306 -30 400 -9 114 25 225 85 305 164 101 100 130 185 96 276
-25 65 -66 95 -128 95 -44 0 -54 -4 -84 -34 -39 -39 -44 -75 -15 -122 17 -28
17 -31 2 -50 -103 -127 -345 -176 -547 -110 -88 28 -218 105 -329 194 -38 31
-196 180 -350 332 -154 152 -363 353 -465 447 -222 205 -460 447 -553 563
-223 278 -357 545 -414 825 -24 123 -25 408 -1 515 42 189 118 335 244 471 80
85 89 111 59 169 -31 61 -100 68 -167 17z"/>
<path d="M41379 21235 c-14 -8 -32 -28 -39 -44 -24 -58 -8 -87 136 -251 882
-1003 1288 -1562 1604 -2205 308 -628 460 -1226 460 -1815 0 -470 -97 -901
-291 -1289 -389 -782 -1176 -1347 -2084 -1500 -189 -32 -311 -41 -539 -41
-467 0 -861 76 -1303 252 -169 67 -204 70 -243 21 -24 -31 -27 -99 -5 -129 41
-60 571 -234 890 -293 293 -55 668 -75 947 -52 715 61 1363 338 1881 805 268
242 481 523 641 846 154 311 244 612 293 975 21 163 24 595 4 765 -111 976
-532 1883 -1357 2922 -249 313 -855 1017 -894 1038 -26 14 -70 12 -101 -5z"/>
<path d="M6239 19561 c-20 -20 -29 -39 -29 -61 0 -40 12 -62 67 -127 l45 -53
-30 0 c-38 0 -88 -41 -97 -79 -15 -71 308 -792 526 -1171 666 -1161 1572
-1958 2638 -2321 682 -233 1335 -267 1976 -104 224 57 392 118 600 219 443
215 798 503 1071 868 147 197 274 428 274 499 0 77 -79 123 -149 86 -15 -7
-44 -52 -78 -117 -360 -693 -1069 -1212 -1888 -1383 -221 -47 -363 -61 -615
-61 -451 -1 -835 73 -1279 246 -839 329 -1578 952 -2148 1813 -282 425 -509
872 -711 1395 -3 8 31 -19 77 -60 139 -126 201 -178 319 -267 507 -382 1152
-631 1780 -685 158 -13 186 -9 207 32 24 46 19 95 -13 131 -27 30 -33 32 -133
40 -665 56 -1284 301 -1804 716 -104 82 -335 305 -438 421 -43 49 -49 52 -92
52 -38 0 -52 -5 -76 -29z"/>
<path d="M15075 17649 c-396 -57 -764 -276 -1004 -596 -268 -357 -367 -814
-272 -1252 39 -179 124 -373 232 -533 82 -121 275 -314 394 -395 180 -122 406
-214 610 -249 121 -20 365 -23 480 -5 644 101 1138 567 1277 1204 19 87 22
132 22 312 0 180 -3 225 -22 312 -134 617 -622 1088 -1237 1193 -125 21 -363
26 -480 9z m298 -359 c73 -23 167 -87 214 -146 62 -79 113 -211 113 -292 0
-31 2 -34 23 -28 90 27 205 15 307 -32 73 -34 185 -147 236 -237 97 -176 139
-400 99 -530 -25 -79 -97 -157 -171 -184 -30 -12 -63 -21 -73 -21 -17 0 -18
-8 -13 -92 2 -54 -1 -117 -7 -150 -49 -232 -265 -384 -496 -348 -78 12 -178
55 -235 100 l-38 30 -7 -29 c-10 -45 -76 -142 -126 -185 -96 -83 -207 -120
-359 -120 -171 0 -317 52 -415 149 -70 69 -99 131 -103 225 -4 68 1 89 42 215
25 76 46 145 46 152 0 7 -15 20 -32 29 -128 65 -224 217 -243 384 -8 69 14
179 51 251 59 117 199 219 350 255 68 16 227 15 281 -1 21 -7 21 -7 6 37 -23
63 -20 189 6 262 85 240 323 374 544 306z"/>
<path d="M15159 17187 c-166 -62 -271 -245 -236 -412 15 -74 12 -93 -18 -101
-23 -6 -23 -6 -4 -25 37 -37 11 -108 -35 -95 -98 29 -139 36 -196 36 -177 0
-334 -90 -398 -228 -36 -77 -37 -198 -2 -287 29 -75 125 -175 185 -195 22 -7
46 -17 53 -23 23 -18 12 -96 -33 -237 -67 -208 -59 -289 33 -372 135 -122 371
-153 540 -70 69 33 154 125 176 188 9 26 16 74 16 106 0 105 66 134 110 48 28
-55 121 -135 188 -161 78 -31 198 -32 263 -2 66 30 126 88 162 157 30 57 32
68 32 166 0 94 -3 111 -27 161 -16 31 -28 65 -28 75 0 47 48 57 115 24 33 -16
47 -18 76 -10 43 12 106 71 125 116 19 44 18 172 -1 245 -34 130 -115 279
-187 344 -113 102 -288 124 -390 49 -55 -41 -128 -21 -114 30 26 90 29 118 18
178 -23 122 -101 231 -200 279 -57 28 -169 36 -223 16z m198 -867 c72 -42 106
-94 111 -174 7 -103 -42 -187 -134 -232 -176 -86 -353 44 -304 226 17 65 95
179 133 195 57 25 135 19 194 -15z"/>
<path d="M34001 17389 c-330 -45 -648 -204 -886 -444 -508 -514 -587 -1319
-187 -1920 229 -345 575 -575 987 -657 157 -32 434 -31 585 1 298 63 548 194
763 401 255 243 411 554 458 905 16 126 6 393 -20 512 -66 303 -198 541 -420
764 -227 227 -495 370 -798 425 -107 19 -380 26 -482 13z m791 -392 c71 -35
132 -101 203 -221 113 -190 166 -377 146 -520 -13 -91 -42 -170 -86 -236 l-34
-50 42 -21 c191 -98 362 -293 424 -486 21 -67 24 -92 20 -173 -5 -115 -26
-168 -94 -241 -140 -150 -361 -169 -596 -51 l-94 48 1 -56 c0 -70 -29 -135
-84 -189 -82 -80 -227 -108 -395 -77 -332 62 -504 189 -522 385 l-6 61 -112
-6 c-75 -5 -129 -3 -166 6 -233 54 -418 279 -419 511 0 141 60 268 155 328
l43 28 -42 61 c-96 137 -127 332 -78 487 59 191 216 343 402 391 149 38 276
-23 420 -203 35 -43 66 -78 70 -78 4 0 25 21 47 47 146 178 387 291 603 285
81 -2 105 -7 152 -30z"/>
<path d="M34545 16920 c-113 -20 -268 -98 -358 -181 -80 -73 -133 -150 -165
-243 -29 -84 -37 -96 -68 -96 -27 0 -39 16 -36 47 2 11 -1 24 -7 27 -6 4 -5
22 3 51 13 43 13 44 -26 111 -56 93 -152 188 -223 220 -69 32 -125 29 -207
-10 -305 -145 -370 -525 -130 -761 52 -52 63 -68 60 -90 -4 -33 -18 -42 -82
-50 -61 -8 -124 -63 -156 -137 -19 -44 -22 -65 -18 -137 3 -71 10 -98 36 -152
63 -132 203 -237 329 -247 30 -3 110 1 178 8 131 12 154 9 175 -30 8 -14 6
-29 -5 -56 -23 -55 -19 -102 15 -161 51 -88 156 -145 350 -189 173 -39 276
-30 349 33 52 44 69 94 52 155 -12 42 -29 72 -95 168 -28 39 -29 44 -15 68 27
49 54 41 174 -53 178 -138 310 -192 449 -183 203 13 316 161 271 353 -46 199
-216 392 -432 492 -43 19 -81 41 -85 47 -18 26 -6 57 37 97 118 110 151 303
86 493 -28 81 -118 247 -167 310 -66 83 -167 117 -289 96z m-358 -846 c16 -12
33 -30 38 -40 6 -11 19 -33 31 -49 29 -42 54 -110 54 -147 0 -141 -126 -234
-263 -194 -223 65 -256 339 -52 437 53 26 153 22 192 -7z"/>
<path d="M36895 15097 c-318 -176 -549 -451 -669 -796 -20 -57 -36 -118 -36
-136 0 -83 110 -132 172 -78 9 8 31 58 49 112 61 188 150 338 283 478 88 94
196 179 301 237 79 45 104 85 85 141 -26 78 -93 93 -185 42z"/>
<path d="M40001 15003 c-7 -3 -56 -34 -107 -69 -118 -80 -184 -113 -310 -157
-165 -57 -256 -72 -449 -71 -142 0 -187 4 -270 23 -154 36 -177 37 -209 9 -55
-48 -43 -143 22 -174 54 -26 254 -63 377 -70 204 -12 450 30 656 111 177 70
399 209 420 263 13 33 -2 91 -30 116 -20 18 -77 29 -100 19z"/>
<path d="M11204 14741 c-40 -24 -59 -75 -44 -117 12 -33 172 -183 331 -309
358 -285 877 -586 1563 -905 863 -401 1389 -573 2014 -657 198 -27 678 -24
869 5 374 56 695 161 971 316 142 79 172 107 172 158 0 68 -42 118 -98 118
-10 0 -60 -25 -112 -57 -274 -163 -582 -271 -930 -324 -176 -27 -534 -36 -732
-20 -658 56 -1347 288 -2368 797 -705 352 -1101 605 -1448 928 -102 95 -127
104 -188 67z"/>
<path d="M38256 13969 c-294 -38 -571 -184 -821 -434 -240 -239 -380 -469
-565 -930 -137 -341 -187 -433 -293 -532 -192 -181 -467 -260 -977 -278 -1044
-38 -2139 354 -2956 1059 -151 130 -380 366 -508 523 -119 148 -137 163 -182
163 -58 0 -114 -69 -100 -125 8 -33 177 -241 312 -386 387 -412 800 -718 1309
-969 385 -189 717 -304 1113 -385 329 -67 543 -88 877 -89 538 -1 882 72 1135
239 137 91 267 249 346 420 19 42 70 167 113 279 96 248 178 410 292 581 267
397 592 623 949 659 85 9 118 23 135 57 29 55 14 119 -34 144 -33 16 -43 17
-145 4z"/>
</g>
</svg>
